<?xml version="1.0" encoding="utf-8"?>
<!-- Generator: Adobe Illustrator 20.1.0, SVG Export Plug-In . SVG Version: 6.00 Build 0)  -->
<svg version="1.1" id="Слой_1" xmlns="http://www.w3.org/2000/svg" xmlns:xlink="http://www.w3.org/1999/xlink" x="0px" y="0px"
	 viewBox="0 0 1347 874" style="enable-background:new 0 0 1347 874;" xml:space="preserve">
<style type="text/css">
	.st0{stroke:#0098E6;stroke-width:1.5;}
	.st1{fill:none;stroke:#0098E6;}
	.st2{fill:#0098E6;}
	.st3{fill:#FFFFFF;}
	.st4{font-family:'Arial-BoldMT';}
	.st5{font-size:8.6043px;}
</style>
<g id="canvas" transform="matrix(1,0,0,1,673.5,62.4)">
	<g transform="matrix(1,0,0,1,0,0)">
		<g id="size-3c37" transform="matrix(1,0,0,1,0,279.9800109863281)">
			<g>
				<g>
					<path class="st0" d="M-25.4,207.2c-7.3-92.3-10.9-150-10.9-173.1c0-15.4,2.7-53.9,8.2-115.4l177.3,216.6L184,103L21.7-127.5
						C5.9-150-17.7-181.4-41.8-191.3l-45-18.4l-33.2-21.1c-28.1,7.4-56.1,7.4-84.2,0l-33.2,21.1l-45,18.4
						c-24.2,9.8-47.7,41.3-63.5,63.8L-508.3,103l34.9,32.4l177.3-216.6c5.5,61.6,8.2,100,8.2,115.4c0,23.1-3.6,80.8-10.9,173.1
						H-25.4z"/>
				</g>
				<g>
					<path class="st1" d="M-120-230.8L-175.8,1.3l87.4-166.4l-20-15.3h13.3l8.3-29.2 M-128.5-195.7l20,15.3 M-204.3-230.8
						l42.1,175.2 M-167.2-34.4l-68.6-130.7l20-15.3h-13.3l-8.3-29.2 M-195.8-195.7l-20,15.3 M-175.8,1.3v145.5
						c0,40.3,13.7,60.4,41,60.4 M-175.8,146.8c0,40.3-13.7,60.4-41,60.4 M-200-213.3c25.3,7.4,50.5,7.4,75.8,0 M-28.2-81.3
						c-21.5-36.7-26.1-73.3-13.7-110 M-296.1-81.3c21.5-36.7,26.1-73.3,13.7-110 M-169,24c0,4.2,3.1,7.6,6.8,7.6s6.8-3.4,6.8-7.6
						s-3.1-7.6-6.8-7.6S-169,19.8-169,24 M-169,65.8c0,4.2,3.1,7.6,6.8,7.6s6.8-3.4,6.8-7.6s-3.1-7.6-6.8-7.6S-169,61.6-169,65.8
						 M-50,86V58.2h-75.5v19.5l7.5,8.3H-50 M-274.3,86V58.2h75.5v19.5l-7.5,8.3H-274.3"/>
				</g>
			</g>
			<g>
				<g>
					<path class="st1" d="M-237.4-205.7v409"/>
					<path class="st2" d="M-237.4-209.6l3.5,7.8h-7.1L-237.4-209.6z"/>
					<path class="st2" d="M-237.4,207.2l-3.5-7.8h7.1L-237.4,207.2z"/>
				</g>
				<g>
					<path class="st1" d="M-285.9-69.2h247.5"/>
					<path class="st2" d="M-289.4-69.2l7.1-3.9v7.8L-289.4-69.2z"/>
					<path class="st2" d="M-34.9-69.2l-7.1,3.9v-7.8L-34.9-69.2z"/>
				</g>
				<g>
					<path class="st1" d="M-158.6-262.5h102.5L192.3,90.2"/>
					<path class="st2" d="M-162.1-262.5l7.1-3.9v7.8L-162.1-262.5z"/>
					<path class="st2" d="M194.5,93.3l-7.1-3.8l5.6-4.8L194.5,93.3z"/>
				</g>
				<g>
					<path class="st1" d="M-278.1,34.1h231.9"/>
					<path class="st2" d="M-281.6,34.1l7.1-3.9V38L-281.6,34.1z"/>
					<path class="st2" d="M-42.7,34.1l-7.1,3.9v-7.8L-42.7,34.1z"/>
				</g>
				<g>
					<path class="st1" d="M-288.5,207.2h252.7"/>
					<path class="st2" d="M-292,207.2l7.1-3.9v7.8L-292,207.2z"/>
					<path class="st2" d="M-32.3,207.2l-7.1,3.9v-7.8L-32.3,207.2z"/>
				</g>
			</g>
			<g>
				<g transform="matrix(1,0,0,1,-106,-159)">
					<rect x="-160.9" y="12.7" class="st2" width="58.8" height="14.9"/>
					<text transform="matrix(0.9052 0 0 1 -157.5933 22.8534)" class="st3 st4 st5">LÄNGD 69 CM</text>
				</g>
				<g transform="matrix(1,0,0,1,0,-69)">
					<rect x="-191.9" y="-6.9" class="st2" width="59.5" height="14.9"/>
					<text transform="matrix(0.9052 0 0 1 -188.3237 3.2518)" class="st3 st4 st5">BRÖST 49 CM</text>
				</g>
				<g transform="matrix(1,0,0,1,170,-324)">
					<rect x="-249.3" y="48.6" class="st2" width="75.1" height="14.9"/>
					<text transform="matrix(0.9052 0 0 1 -247.0415 58.788)" class="st3 st4 st5">ÄRMLÄNGD 86 CM</text>
				</g>
				<g transform="matrix(1,0,0,1,0,63)">
					<rect x="-189" y="-35.7" class="st2" width="53.1" height="14.9"/>
					<text transform="matrix(0.9052 0 0 1 -186.6675 -25.4972)" class="st3 st4 st5">MIDJA 46 CM</text>
				</g>
				<g transform="matrix(1,0,0,1,0,284)">
					<rect x="-203.9" y="-83.8" class="st2" width="82.8" height="14.9"/>
					<text transform="matrix(0.9052 0 0 1 -200.0073 -73.6261)" class="st3 st4 st5">BOTTENVIDD 50 CM</text>
				</g>
			</g>
		</g>
	</g>
</g>
</svg>
