<svg version="1.1" xmlns="http://www.w3.org/2000/svg" x="0px" y="0px" width="1423px" height="600px" viewBox="0 0 2500 1054" enable-background="new 0 0 2500 1054">
    <g id="canvas" class="measurements fit-illustrator size3" transform="matrix(1,0,0,1,673.5,62.4)">
        <g transform="matrix(1,0,0,1,0,0)">
            <g id="size-3c37" class="size compare" transform="matrix(1,0,0,1,0,279.9800109863281)"
               style="visibility: visible;">
                <g>
                    <g class="outline" style="stroke: #0098e6;fill: #ffccbb;">
                        <path style="stroke-width: 1.5;" d="M193.09,279.98Q177.65,102.92,177.65,58.65Q177.65,29.14,189.23,-88.9L439.63,188.06L488.91,146.7L259.64,-147.98C237.31,-176.68,204.03,-216.89,169.92,-229.48L106.3,-252.95L59.47,-279.98Q0,-265.71,-59.47,-279.98L-106.3,-252.95L-169.92,-229.48C-204.03,-216.89,-237.31,-176.68,-259.64,-147.98L-488.91,146.7L-439.63,188.06L-189.23,-88.9Q-177.65,29.14,-177.65,58.65Q-177.65,102.92,-193.09,279.98L193.09,279.98Z"></path>
                    </g>
                    <g class="details" style="stroke: #0098e6;fill: none;">
                        <path style="stroke-width: 1;" d="M59.47,-279.98L-19.31,16.73L104.08,-195.99L75.83,-215.59L94.62,-215.59L106.3,-252.95M47.58,-235.19L75.83,-215.59M-59.47,-279.98L0,-56M-7.18,-28.95L-104.08,-195.99L-75.83,-215.59L-94.62,-215.59L-106.3,-252.95M-47.58,-235.19L-75.83,-215.59M-19.31,16.73L-19.31,202.75Q-19.31,279.98,38.62,279.98M-19.31,202.75Q-19.31,279.98,-77.24,279.98M-53.53,-257.59Q0,-243.32,53.53,-257.59M189.23,-88.9Q143.66,-159.19,169.92,-229.48M-189.23,-88.9Q-143.66,-159.19,-169.92,-229.48M0,45.69m-9.65,0a9.65,9.65,0,1,0,19.31,0a9.65,9.65,0,1,0,-19.31,0M0,99.18m-9.65,0a9.65,9.65,0,1,0,19.31,0a9.65,9.65,0,1,0,-19.31,0M158.34,125.05L158.34,89.52L51.75,89.52L51.75,114.39L62.41,125.05L158.34,125.05M-158.34,125.05L-158.34,89.52L-51.75,89.52L-51.75,114.39L-62.41,125.05L-158.34,125.05"></path>
                    </g>
                </g>
                <g class="arrows">
                    <g>
                        <path style="fill: none;stroke-width: 1;stroke: #0098e6;" d="M-106.3,-247.95L-106.3,274.98"></path>
                        <path style="stroke: none;fill: #0098e6;" d="M0,0L-10,5L-10,-5Z" transform="matrix(0,-1,1,0,-106.3,-252.95)" class="head"></path>
                        <path style="stroke: none;fill: #0098e6;" d="M0,0L-10,5L-10,-5Z" transform="matrix(0,1,-1,0,-106.3,279.98)" class="head"></path>
                    </g>

                    <g>
                        <path style="fill: none;stroke-width: 1;stroke: #0098e6;" d="M-174.77,-73.46L174.77,-73.46"></path>
                        <path style="stroke: none;fill: #0098e6;" d="M0,0L-10,5L-10,-5Z" transform="matrix(-1,0,0,-1,-179.77,-73.46)" class="head"></path>
                        <path style="stroke: none;fill: #0098e6;" d="M0,0L-10,5L-10,-5Z" transform="matrix(1,0,0,1,179.77,-73.46)" class="head"></path>
                    </g>

                    <g>
                        <path style="fill: none;stroke-width: 1;stroke: #0098e6;" d="M5,-320.53L149.83,-320.53L500.63,130.34"></path>
                        <path style="stroke: none;fill: #0098e6;" d="M0,0L-10,5L-10,-5Z" transform="matrix(-1,0,0,-1,0,-320.53)" class="head"></path>
                        <path style="stroke: none;fill: #0098e6;" d="M0,0L-10,5L-10,-5Z" transform="matrix(0.6141,0.7893,-0.7893,0.6141,503.7,134.29)"
                              class="head"></path>
                    </g>

                    <g>
                        <path style="fill: none;stroke-width: 1;stroke: #0098e6;" d="M-163.76,58.65L163.76,58.65"></path>
                        <path style="stroke: none;fill: #0098e6;" d="M0,0L-10,5L-10,-5Z" transform="matrix(-1,0,0,-1,-168.76,58.65)" class="head"></path>
                        <path style="stroke: none;fill: #0098e6;" d="M0,0L-10,5L-10,-5Z" transform="matrix(1,0,0,1,168.76,58.65)" class="head"></path>
                    </g>

                    <g>
                        <path style="fill: none;stroke-width: 1;stroke: #0098e6;" d="M-178.44,279.98L178.44,279.98"></path>
                        <path style="stroke: none;fill: #0098e6;" d="M0,0L-10,5L-10,-5Z" transform="matrix(-1,0,0,-1,-183.44,279.98)" class="head"></path>
                        <path style="stroke: none;fill: #0098e6;" d="M0,0L-10,5L-10,-5Z" transform="matrix(1,0,0,1,183.44,279.98)" class="head"></path>
                    </g>

                </g>


                <g class="labels">
                    <g transform="matrix(1,0,0,1,-106,-159)">
                        <rect style="fill: #0098e6; stroke:none;" x="-42" y="-13" width="83" height="19" class="bg"></rect>
                        <text style="font-size: 11px;font-family: proxima-nova,'Helvetica Neue',Helvetica,Arial;font-weight: 700;line-height: 18px;text-anchor: middle;fill: #fff;stroke: none;" x="0" y="0" class="text">LÄNGD 69 CM</text>
                    </g>
                    <g transform="matrix(1,0,0,1,0,-69)">
                        <rect style="fill: #0098e6; stroke:none;" x="-42" y="-13" width="84" height="19" class="bg"></rect>
                        <text style="font-size: 11px;font-family: proxima-nova,'Helvetica Neue',Helvetica,Arial;font-weight: 700;line-height: 18px;text-anchor: middle;fill: #fff;stroke: none;" x="0" y="0" class="text">BRÖST 49 CM</text>
                    </g>
                    <g transform="matrix(1,0,0,1,170,-324)">
                        <rect style="fill: #0098e6; stroke:none;" x="-53" y="-13" width="106" height="19" class="bg"></rect>
                        <text style="font-size: 11px;font-family: proxima-nova,'Helvetica Neue',Helvetica,Arial;font-weight: 700;line-height: 18px;text-anchor: middle;fill: #fff;stroke: none;" x="0" y="0" class="text">ÄRMLÄNGD 86 CM</text>
                    </g>
                    <g transform="matrix(1,0,0,1,0,63)">
                        <rect style="fill: #0098e6; stroke:none;" x="-38" y="-13" width="75" height="19" class="bg"></rect>
                        <text style="font-size: 11px;font-family: proxima-nova,'Helvetica Neue',Helvetica,Arial;font-weight: 700;line-height: 18px;text-anchor: middle;fill: #fff;stroke: none;" x="0" y="0" class="text">MIDJA 46 CM</text>
                    </g>
                    <g transform="matrix(1,0,0,1,0,284)">
                        <rect style="fill: #0098e6; stroke:none;" x="-59" y="-13" width="117" height="19" class="bg"></rect>
                        <text style="font-size: 11px;font-family: proxima-nova,'Helvetica Neue',Helvetica,Arial;font-weight: 700;line-height: 18px;text-anchor: middle;fill: #fff;stroke: none;" x="0" y="0" class="text">BOTTENVIDD 50 CM</text>
                    </g>
                </g>
            </g>

            <!--<g id="size-37312p3030" class="size compare" transform="matrix(1,0,0,1,0,303.16)" style="display: none;">-->

                <!--<g>-->


                    <!--<g class="outline">-->

                        <!--<path d="M204.68,303.16Q181.51,113.87,181.51,66.55Q181.51,35,198.89,-91.19L445.33,178.01L501.67,130.74L279.35,-158.71C253.89,-191.86,215.04,-237.68,175.71,-251.85L108.32,-276.12L61.5,-303.16Q0,-288.4,-61.5,-303.16L-108.32,-276.12L-175.71,-251.85C-215.04,-237.68,-253.89,-191.86,-279.35,-158.71L-501.67,130.74L-445.33,178.01L-198.89,-91.19Q-181.51,35,-181.51,66.55Q-181.51,113.87,-204.68,303.16L204.68,303.16Z"></path>-->

                    <!--</g>-->

                    <!--<g class="details">-->

                        <!--<path d="M61.5,-303.16L-19.31,15.51L109.39,-212.21L79.29,-233.43L99.44,-233.43L108.32,-276.12M49.2,-254.65L79.29,-233.43M-61.5,-303.16L0,-60.63M-7.35,-31.65L-109.39,-212.21L-79.29,-233.43L-99.44,-233.43L-108.32,-276.12M-49.2,-254.65L-79.29,-233.43M-19.31,15.51L-19.31,221.28Q-19.31,303.16,42.09,303.16M-19.31,221.28Q-19.31,303.16,-80.71,303.16M-55.8,-280.7Q0,-265.94,55.8,-280.7M198.89,-91.19Q149.84,-171.52,175.71,-251.85M-198.89,-91.19Q-149.84,-171.52,-175.71,-251.85M0,44.48m-9.65,0a9.65,9.65,0,1,0,19.31,0a9.65,9.65,0,1,0,-19.31,0M0,110.88m-9.65,0a9.65,9.65,0,1,0,19.31,0a9.65,9.65,0,1,0,-19.31,0M162.2,137.53L162.2,101.23L53.29,101.23L53.29,126.64L64.18,137.53L162.2,137.53M-162.2,137.53L-162.2,101.23L-53.29,101.23L-53.29,126.64L-64.18,137.53L-162.2,137.53"></path>-->

                    <!--</g>-->


                <!--</g>-->


                <!--<g class="arrows">-->


                    <!--<g>-->
                        <!--<path d="M-108.32,-271.12L-108.32,298.16"></path>-->
                        <!--<path d="M0,0L-10,5L-10,-5Z" transform="matrix(0,-1,1,0,-108.32,-276.12)" class="head"></path>-->
                        <!--<path d="M0,0L-10,5L-10,-5Z" transform="matrix(0,1,-1,0,-108.32,303.16)" class="head"></path>-->
                    <!--</g>-->

                    <!--<g>-->
                        <!--<path d="M-183.94,-75.75L183.94,-75.75"></path>-->
                        <!--<path d="M0,0L-10,5L-10,-5Z" transform="matrix(-1,0,0,-1,-188.94,-75.75)" class="head"></path>-->
                        <!--<path d="M0,0L-10,5L-10,-5Z" transform="matrix(1,0,0,1,188.94,-75.75)" class="head"></path>-->
                    <!--</g>-->

                    <!--<g>-->
                        <!--<path d="M5,-343.71L165.06,-343.71L515.5200000000001,112.59"></path>-->
                        <!--<path d="M0,0L-10,5L-10,-5Z" transform="matrix(-1,0,0,-1,0,-343.71)" class="head"></path>-->
                        <!--<path d="M0,0L-10,5L-10,-5Z" transform="matrix(0.6091,0.7931,-0.7931,0.6091,518.57,116.56)"-->
                              <!--class="head"></path>-->
                    <!--</g>-->

                    <!--<g>-->
                        <!--<path d="M-167.43,66.55L167.43,66.55"></path>-->
                        <!--<path d="M0,0L-10,5L-10,-5Z" transform="matrix(-1,0,0,-1,-172.43,66.55)" class="head"></path>-->
                        <!--<path d="M0,0L-10,5L-10,-5Z" transform="matrix(1,0,0,1,172.43,66.55)" class="head"></path>-->
                    <!--</g>-->

                    <!--<g>-->
                        <!--<path d="M-189.44,303.16L189.44,303.16"></path>-->
                        <!--<path d="M0,0L-10,5L-10,-5Z" transform="matrix(-1,0,0,-1,-194.44,303.16)" class="head"></path>-->
                        <!--<path d="M0,0L-10,5L-10,-5Z" transform="matrix(1,0,0,1,194.44,303.16)" class="head"></path>-->
                    <!--</g>-->

                <!--</g>-->


                <!--<g class="labels">-->
                    <!--<g transform="matrix(1,0,0,1,-108,-172)">-->
                        <!--<rect x="-42" y="-13" width="83" height="19" class="bg"></rect>-->
                        <!--<text x="0" y="0" class="text">LÄNGD 75 CM</text>-->
                    <!--</g>-->
                    <!--<g transform="matrix(1,0,0,1,0,-72)">-->
                        <!--<rect x="-48" y="-13" width="95" height="19" class="bg"></rect>-->
                        <!--<text x="0" y="0" class="text">BRÖST 51.5 CM</text>-->
                    <!--</g>-->
                    <!--<g transform="matrix(1,0,0,1,176,-347)">-->
                        <!--<rect x="-53" y="-13" width="106" height="19" class="bg"></rect>-->
                        <!--<text x="0" y="0" class="text">ÄRMLÄNGD 88 CM</text>-->
                    <!--</g>-->
                    <!--<g transform="matrix(1,0,0,1,0,71)">-->
                        <!--<rect x="-38" y="-13" width="75" height="19" class="bg"></rect>-->
                        <!--<text x="0" y="0" class="text">MIDJA 47 CM</text>-->
                    <!--</g>-->
                    <!--<g transform="matrix(1,0,0,1,0,307)">-->
                        <!--<rect x="-59" y="-13" width="117" height="19" class="bg"></rect>-->
                        <!--<text x="0" y="0" class="text">BOTTENVIDD 53 CM</text>-->
                    <!--</g>-->
                <!--</g>-->
            <!--</g>-->

            <!--<g id="size-312t2s2x3931" class="size compare" transform="matrix(1,0,0,1,0,326.33)" style="display: none;">-->

                <!--<g>-->


                    <!--<g class="outline">-->

                        <!--<path d="M216.26,326.33Q185.37,124.82,185.37,74.44Q185.37,40.86,208.54,-93.48L451.02,167.98L514.45,114.76L299.07,-169.44C270.53,-207.09,226.06,-258.51,181.51,-274.22L110.35,-299.29L63.53,-326.33Q0,-311.08,-63.53,-326.33L-110.35,-299.29L-181.51,-274.22C-226.06,-258.51,-270.53,-207.09,-299.07,-169.44L-514.45,114.76L-451.02,167.98L-208.54,-93.48Q-185.37,40.86,-185.37,74.44Q-185.37,124.82,-216.26,326.33L216.26,326.33Z"></path>-->

                    <!--</g>-->

                    <!--<g class="details">-->

                        <!--<path d="M63.53,-326.33L-19.31,14.08L114.7,-228.43L82.76,-251.27L104.27,-251.27L110.35,-299.29M50.82,-274.11L82.76,-251.27M-63.53,-326.33L0,-65.27M-7.5,-34.44L-114.7,-228.43L-82.76,-251.27L-104.27,-251.27L-110.35,-299.29M-50.82,-274.11L-82.76,-251.27M-19.31,14.08L-19.31,239.82Q-19.31,326.33,45.57,326.33M-19.31,239.82Q-19.31,326.33,-84.19,326.33M-58.05,-303.81Q0,-288.57,58.05,-303.81M208.54,-93.48Q156.02,-183.85,181.51,-274.22M-208.54,-93.48Q-156.02,-183.85,-181.51,-274.22M0,43.05m-9.65,0a9.65,9.65,0,1,0,19.31,0a9.65,9.65,0,1,0,-19.31,0M0,122.59m-9.65,0a9.65,9.65,0,1,0,19.31,0a9.65,9.65,0,1,0,-19.31,0M166.06,150.01L166.06,112.93L54.84,112.93L54.84,138.89L65.96,150.01L166.06,150.01M-166.06,150.01L-166.06,112.93L-54.84,112.93L-54.84,138.89L-65.96,150.01L-166.06,150.01"></path>-->

                    <!--</g>-->


                <!--</g>-->


                <!--<g class="arrows">-->


                    <!--<g>-->
                        <!--<path d="M-110.35,-294.29L-110.35,321.33"></path>-->
                        <!--<path d="M0,0L-10,5L-10,-5Z" transform="matrix(0,-1,1,0,-110.35,-299.29)" class="head"></path>-->
                        <!--<path d="M0,0L-10,5L-10,-5Z" transform="matrix(0,1,-1,0,-110.35,326.33)" class="head"></path>-->
                    <!--</g>-->

                    <!--<g>-->
                        <!--<path d="M-193.11,-78.03L193.11,-78.03"></path>-->
                        <!--<path d="M0,0L-10,5L-10,-5Z" transform="matrix(-1,0,0,-1,-198.11,-78.03)" class="head"></path>-->
                        <!--<path d="M0,0L-10,5L-10,-5Z" transform="matrix(1,0,0,1,198.11,-78.03)" class="head"></path>-->
                    <!--</g>-->

                    <!--<g>-->
                        <!--<path d="M5,-366.88L180.57,-366.88L530.46,94.81"></path>-->
                        <!--<path d="M0,0L-10,5L-10,-5Z" transform="matrix(-1,0,0,-1,0,-366.88)" class="head"></path>-->
                        <!--<path d="M0,0L-10,5L-10,-5Z" transform="matrix(0.604,0.797,-0.797,0.604,533.48,98.79)"-->
                              <!--class="head"></path>-->
                    <!--</g>-->

                    <!--<g>-->
                        <!--<path d="M-171.1,74.44L171.1,74.44"></path>-->
                        <!--<path d="M0,0L-10,5L-10,-5Z" transform="matrix(-1,0,0,-1,-176.1,74.44)" class="head"></path>-->
                        <!--<path d="M0,0L-10,5L-10,-5Z" transform="matrix(1,0,0,1,176.1,74.44)" class="head"></path>-->
                    <!--</g>-->

                    <!--<g>-->
                        <!--<path d="M-200.45,326.33L200.45,326.33"></path>-->
                        <!--<path d="M0,0L-10,5L-10,-5Z" transform="matrix(-1,0,0,-1,-205.45,326.33)" class="head"></path>-->
                        <!--<path d="M0,0L-10,5L-10,-5Z" transform="matrix(1,0,0,1,205.45,326.33)" class="head"></path>-->
                    <!--</g>-->

                <!--</g>-->


                <!--<g class="labels">-->
                    <!--<g transform="matrix(1,0,0,1,-110,-185)">-->
                        <!--<rect x="-42" y="-13" width="83" height="19" class="bg"></rect>-->
                        <!--<text x="0" y="0" class="text">LÄNGD 81 CM</text>-->
                    <!--</g>-->
                    <!--<g transform="matrix(1,0,0,1,0,-74)">-->
                        <!--<rect x="-42" y="-13" width="84" height="19" class="bg"></rect>-->
                        <!--<text x="0" y="0" class="text">BRÖST 54 CM</text>-->
                    <!--</g>-->
                    <!--<g transform="matrix(1,0,0,1,182,-370)">-->
                        <!--<rect x="-53" y="-13" width="106" height="19" class="bg"></rect>-->
                        <!--<text x="0" y="0" class="text">ÄRMLÄNGD 90 CM</text>-->
                    <!--</g>-->
                    <!--<g transform="matrix(1,0,0,1,0,78)">-->
                        <!--<rect x="-38" y="-13" width="75" height="19" class="bg"></rect>-->
                        <!--<text x="0" y="0" class="text">MIDJA 48 CM</text>-->
                    <!--</g>-->
                    <!--<g transform="matrix(1,0,0,1,0,330)">-->
                        <!--<rect x="-59" y="-13" width="117" height="19" class="bg"></rect>-->
                        <!--<text x="0" y="0" class="text">BOTTENVIDD 56 CM</text>-->
                    <!--</g>-->
                <!--</g>-->
            <!--</g>-->

            <!--<g id="size-302p362v2t" class="size compare" transform="matrix(1,0,0,1,0,349.5)" style="display: none;">-->

                <!--<g>-->


                    <!--<g class="outline">-->

                        <!--<path d="M225.92,349.5Q196.95,135.77,196.95,82.34Q196.95,46.72,218.2,-95.77L456.61,158.03L527.32,98.69L318.78,-180.17C287.23,-222.36,237.1,-279.39,187.3,-296.59L112.38,-322.47L65.56,-349.5Q0,-333.77,-65.56,-349.5L-112.38,-322.47L-187.3,-296.59C-237.1,-279.39,-287.23,-222.36,-318.78,-180.17L-527.32,98.69L-456.61,158.03L-218.2,-95.77Q-196.95,46.72,-196.95,82.34Q-196.95,135.77,-225.92,349.5L225.92,349.5Z"></path>-->

                    <!--</g>-->

                    <!--<g class="details">-->

                        <!--<path d="M65.56,-349.5L-19.31,12.46L120.01,-244.65L86.23,-269.11L109.1,-269.11L112.38,-322.47M52.44,-293.58L86.23,-269.11M-65.56,-349.5L0,-69.9M-7.65,-37.29L-120.01,-244.65L-86.23,-269.11L-109.1,-269.11L-112.38,-322.47M-52.44,-293.58L-86.23,-269.11M-19.31,12.46L-19.31,259.13Q-19.31,349.5,48.47,349.5M-19.31,259.13Q-19.31,349.5,-87.08,349.5M-60.27,-326.94Q0,-311.21,60.27,-326.94M218.2,-95.77Q162.2,-196.18,187.3,-296.59M-218.2,-95.77Q-162.2,-196.18,-187.3,-296.59M0,41.42m-9.65,0a9.65,9.65,0,1,0,19.31,0a9.65,9.65,0,1,0,-19.31,0M0,132.75m-9.65,0a9.65,9.65,0,1,0,19.31,0a9.65,9.65,0,1,0,-19.31,0M177.65,162.49L177.65,123.09L59.47,123.09L59.47,150.67L71.29,162.49L177.65,162.49M-177.65,162.49L-177.65,123.09L-59.47,123.09L-59.47,150.67L-71.29,162.49L-177.65,162.49"></path>-->

                    <!--</g>-->


                <!--</g>-->


                <!--<g class="arrows">-->


                    <!--<g>-->
                        <!--<path d="M-112.38,-317.47L-112.38,344.5"></path>-->
                        <!--<path d="M0,0L-10,5L-10,-5Z" transform="matrix(0,-1,1,0,-112.38,-322.47)" class="head"></path>-->
                        <!--<path d="M0,0L-10,5L-10,-5Z" transform="matrix(0,1,-1,0,-112.38,349.5)" class="head"></path>-->
                    <!--</g>-->

                    <!--<g>-->
                        <!--<path d="M-202.29,-80.32L202.29,-80.32"></path>-->
                        <!--<path d="M0,0L-10,5L-10,-5Z" transform="matrix(-1,0,0,-1,-207.29,-80.32)" class="head"></path>-->
                        <!--<path d="M0,0L-10,5L-10,-5Z" transform="matrix(1,0,0,1,207.29,-80.32)" class="head"></path>-->
                    <!--</g>-->

                    <!--<g>-->
                        <!--<path d="M5,-390.05L196.35,-390.05L545.54,76.89"></path>-->
                        <!--<path d="M0,0L-10,5L-10,-5Z" transform="matrix(-1,0,0,-1,0,-390.05)" class="head"></path>-->
                        <!--<path d="M0,0L-10,5L-10,-5Z" transform="matrix(0.5989,0.8008,-0.8008,0.5989,548.53,80.89)"-->
                              <!--class="head"></path>-->
                    <!--</g>-->

                    <!--<g>-->
                        <!--<path d="M-182.11,82.34L182.11,82.34"></path>-->
                        <!--<path d="M0,0L-10,5L-10,-5Z" transform="matrix(-1,0,0,-1,-187.11,82.34)" class="head"></path>-->
                        <!--<path d="M0,0L-10,5L-10,-5Z" transform="matrix(1,0,0,1,187.11,82.34)" class="head"></path>-->
                    <!--</g>-->

                    <!--<g>-->
                        <!--<path d="M-209.62,349.5L209.62,349.5"></path>-->
                        <!--<path d="M0,0L-10,5L-10,-5Z" transform="matrix(-1,0,0,-1,-214.62,349.5)" class="head"></path>-->
                        <!--<path d="M0,0L-10,5L-10,-5Z" transform="matrix(1,0,0,1,214.62,349.5)" class="head"></path>-->
                    <!--</g>-->

                <!--</g>-->


                <!--<g class="labels">-->
                    <!--<g transform="matrix(1,0,0,1,-112,-197)">-->
                        <!--<rect x="-42" y="-13" width="83" height="19" class="bg"></rect>-->
                        <!--<text x="0" y="0" class="text">LÄNGD 87 CM</text>-->
                    <!--</g>-->
                    <!--<g transform="matrix(1,0,0,1,0,-76)">-->
                        <!--<rect x="-48" y="-13" width="95" height="19" class="bg"></rect>-->
                        <!--<text x="0" y="0" class="text">BRÖST 56.5 CM</text>-->
                    <!--</g>-->
                    <!--<g transform="matrix(1,0,0,1,188,-393)">-->
                        <!--<rect x="-53" y="-13" width="106" height="19" class="bg"></rect>-->
                        <!--<text x="0" y="0" class="text">ÄRMLÄNGD 92 CM</text>-->
                    <!--</g>-->
                    <!--<g transform="matrix(1,0,0,1,0,86)">-->
                        <!--<rect x="-38" y="-13" width="75" height="19" class="bg"></rect>-->
                        <!--<text x="0" y="0" class="text">MIDJA 51 CM</text>-->
                    <!--</g>-->
                    <!--<g transform="matrix(1,0,0,1,0,353)">-->
                        <!--<rect x="-64" y="-13" width="128" height="19" class="bg"></rect>-->
                        <!--<text x="0" y="0" class="text">BOTTENVIDD 58.5 CM</text>-->
                    <!--</g>-->
                <!--</g>-->
            <!--</g>-->

            <!--<g id="size-2g24" class="size compare" transform="matrix(1,0,0,1,0,374.6)" style="display: none;">-->

                <!--<g>-->


                    <!--<g class="outline">-->

                        <!--<path d="M235.57,374.6Q214.33,149.33,214.33,93.02Q214.33,55.47,229.78,-94.7L462.86,150.04L543.49,82.38L342.94,-189.65C307.77,-237.36,251.19,-301.69,195.02,-320.62L115.08,-347.57L68.26,-374.6Q0,-358.22,-68.26,-374.6L-115.08,-347.57L-195.02,-320.62C-251.19,-301.69,-307.77,-237.36,-342.94,-189.65L-543.49,82.38L-462.86,150.04L-229.78,-94.7Q-214.33,55.47,-214.33,93.02Q-214.33,149.33,-235.57,374.6L235.57,374.6Z"></path>-->

                    <!--</g>-->

                    <!--<g class="details">-->

                        <!--<path d="M68.26,-374.6L-19.31,9.86L126.38,-262.22L90.49,-288.44L114.89,-288.44L115.08,-347.57M54.61,-314.66L90.49,-288.44M-68.26,-374.6L0,-74.92M-7.78,-40.74L-126.38,-262.22L-90.49,-288.44L-114.89,-288.44L-115.08,-347.57M-54.61,-314.66L-90.49,-288.44M-19.31,9.86L-19.31,280.37Q-19.31,374.6,51.36,374.6M-19.31,280.37Q-19.31,374.6,-89.98,374.6M-63.11,-352.01Q0,-335.63,63.11,-352.01M229.78,-94.7Q169.92,-207.66,195.02,-320.62M-229.78,-94.7Q-169.92,-207.66,-195.02,-320.62M0,38.82m-9.65,0a9.65,9.65,0,1,0,19.31,0a9.65,9.65,0,1,0,-19.31,0M0,144.28m-9.65,0a9.65,9.65,0,1,0,19.31,0a9.65,9.65,0,1,0,-19.31,0M195.02,177.49L195.02,134.63L66.42,134.63L66.42,164.63L79.28,177.49L195.02,177.49M-195.02,177.49L-195.02,134.63L-66.42,134.63L-66.42,164.63L-79.28,177.49L-195.02,177.49"></path>-->

                    <!--</g>-->


                <!--</g>-->


                <!--<g class="arrows">-->


                    <!--<g>-->
                        <!--<path d="M-115.08,-342.57L-115.08,369.6"></path>-->
                        <!--<path d="M0,0L-10,5L-10,-5Z" transform="matrix(0,-1,1,0,-115.08,-347.57)" class="head"></path>-->
                        <!--<path d="M0,0L-10,5L-10,-5Z" transform="matrix(0,1,-1,0,-115.08,374.6)" class="head"></path>-->
                    <!--</g>-->

                    <!--<g>-->
                        <!--<path d="M-213.29,-79.26L213.29,-79.26"></path>-->
                        <!--<path d="M0,0L-10,5L-10,-5Z" transform="matrix(-1,0,0,-1,-218.29,-79.26)" class="head"></path>-->
                        <!--<path d="M0,0L-10,5L-10,-5Z" transform="matrix(1,0,0,1,218.29,-79.26)" class="head"></path>-->
                    <!--</g>-->

                    <!--<g>-->
                        <!--<path d="M5,-415.15L215.85,-415.15L564.7099999999999,58.07000000000001"></path>-->
                        <!--<path d="M0,0L-10,5L-10,-5Z" transform="matrix(-1,0,0,-1,0,-415.15)" class="head"></path>-->
                        <!--<path d="M0,0L-10,5L-10,-5Z" transform="matrix(0.5934,0.8049,-0.8049,0.5934,567.68,62.09)"-->
                              <!--class="head"></path>-->
                    <!--</g>-->

                    <!--<g>-->
                        <!--<path d="M-198.62,93.02L198.62,93.02"></path>-->
                        <!--<path d="M0,0L-10,5L-10,-5Z" transform="matrix(-1,0,0,-1,-203.62,93.02)" class="head"></path>-->
                        <!--<path d="M0,0L-10,5L-10,-5Z" transform="matrix(1,0,0,1,203.62,93.02)" class="head"></path>-->
                    <!--</g>-->

                    <!--<g>-->
                        <!--<path d="M-218.79,374.6L218.79,374.6"></path>-->
                        <!--<path d="M0,0L-10,5L-10,-5Z" transform="matrix(-1,0,0,-1,-223.79,374.6)" class="head"></path>-->
                        <!--<path d="M0,0L-10,5L-10,-5Z" transform="matrix(1,0,0,1,223.79,374.6)" class="head"></path>-->
                    <!--</g>-->

                <!--</g>-->


                <!--<g class="labels">-->
                    <!--<g transform="matrix(1,0,0,1,-115,-209)">-->
                        <!--<rect x="-47" y="-13" width="94" height="19" class="bg"></rect>-->
                        <!--<text x="0" y="0" class="text">LÄNGD 93.5 CM</text>-->
                    <!--</g>-->
                    <!--<g transform="matrix(1,0,0,1,0,-75)">-->
                        <!--<rect x="-48" y="-13" width="95" height="19" class="bg"></rect>-->
                        <!--<text x="0" y="0" class="text">BRÖST 59.5 CM</text>-->
                    <!--</g>-->
                    <!--<g transform="matrix(1,0,0,1,196,-419)">-->
                        <!--<rect x="-59" y="-13" width="117" height="19" class="bg"></rect>-->
                        <!--<text x="0" y="0" class="text">ÄRMLÄNGD 94.5 CM</text>-->
                    <!--</g>-->
                    <!--<g transform="matrix(1,0,0,1,0,97)">-->
                        <!--<rect x="-43" y="-13" width="86" height="19" class="bg"></rect>-->
                        <!--<text x="0" y="0" class="text">MIDJA 55.5 CM</text>-->
                    <!--</g>-->
                    <!--<g transform="matrix(1,0,0,1,0,379)">-->
                        <!--<rect x="-59" y="-13" width="117" height="19" class="bg"></rect>-->
                        <!--<text x="0" y="0" class="text">BOTTENVIDD 61 CM</text>-->
                    <!--</g>-->
                <!--</g>-->
            <!--</g>-->


        </g>

    </g>
</svg>