<?xml version="1.0" encoding="utf-8"?>
<!-- Generator: Adobe Illustrator 20.1.0, SVG Export Plug-In . SVG Version: 6.00 Build 0)  -->
<svg version="1.1" id="Layer_1" xmlns="http://www.w3.org/2000/svg" xmlns:xlink="http://www.w3.org/1999/xlink" x="0px" y="0px"
	 viewBox="0 0 566.9 566.9" style="enable-background:new 0 0 566.9 566.9;" xml:space="preserve">
<style type="text/css">
	.st0{fill:#DEDEE3;stroke:#808184;stroke-width:2;stroke-miterlimit:10;}
	.st1{fill:none;stroke:#808184;stroke-miterlimit:10;}
	.st2{fill:none;stroke:#808184;stroke-width:0.5;stroke-miterlimit:10;}
	.st3{fill:none;}
	.st4{fill:#0098E6;}
	.st5{fill:#FFFFFF;stroke:#0098E6;stroke-miterlimit:10;}
	.st6{font-family:'ProximaNova-Bold';}
	.st7{font-size:8px;}
</style>
<g>
	<path class="st0" d="M284,75.8c7.5,0,16.3-1.1,16.3-1.1l17.4,9.8l29.9,7.9L432,210.9l-21.9,21.7l-62.4-76l-3.6,47.6l3.6,69.4h-58
		c0,0-5.8-0.5-5.8-6.4c0,5.9-5.8,6.4-5.8,6.4h-58l3.6-69.4l-3.6-47.6l-62.4,76l-21.9-21.7l84.5-118.4l29.9-7.9l17.4-9.8
		C267.7,74.8,276.4,75.8,284,75.8z"/>
	<path class="st1" d="M220.4,92.4c0,0,8.3,24.4-0.7,65.3"/>
	<circle class="st2" cx="288.7" cy="177.2" r="2.7"/>
	<circle class="st2" cx="288.7" cy="206.2" r="2.7"/>
	<polyline class="st1" points="250.3,84.5 255.5,102.5 264.2,102.5 257.2,113.7 284,160.8 	"/>
	<line class="st1" x1="267.7" y1="74.8" x2="285.8" y2="150.3"/>
	<polygon class="st1" points="225.9,218.2 268,218.2 268,227.4 264.5,230.9 225.9,230.9 	"/>
	<path class="st1" d="M347.5,92.4c0,0-8.3,24.4,0.7,65.3"/>
	<polyline class="st1" points="317.6,84.5 312.4,102.5 303.8,102.5 310.7,113.7 284,175.6 	"/>
	<path id="SVGID_x5F_1_x5F_" class="st3" d="M300.3,74.8L284,159.9v107.3"/>
	<text>	<textPath  xlink:href="#SVGID_x5F_1_x5F_" startOffset="70.4346%">
	</textPath>
</text>
	<polygon class="st1" points="342,218.2 299.9,218.2 299.9,227.4 303.4,230.9 342,230.9 	"/>
	<path class="st2" d="M298.3,83.2c0,0-5.9,1.4-14.3,1.4c-8.4,0-14.3-1.4-14.3-1.4"/>
	<rect x="305.7" y="137.3" class="st1" width="29.7" height="5.3"/>
	<line class="st1" x1="304.3" y1="110.2" x2="307.3" y2="114"/>
	<line class="st2" x1="264.2" y1="102.5" x2="271.9" y2="92.4"/>
	<line class="st2" x1="303.8" y1="102.5" x2="296.6" y2="94"/>
	<path class="st0" d="M284,295.8c7.5,0,16.3-1.1,16.3-1.1l17.4,9.8l29.9,7.9L432,430.9l-21.9,21.7l-62.4-76l-3.6,47.6l3.6,69.4
		H220.2l3.6-69.4l-3.6-47.6l-62.4,76l-21.9-21.7l84.5-118.4l29.9-7.9l17.4-9.8C267.7,294.8,276.4,295.8,284,295.8z"/>
	<path class="st1" d="M220.4,312.4c0,0,8.3,24.4-0.7,65.3"/>
	<circle class="st2" cx="157.6" cy="445.2" r="2.2"/>
	<circle class="st2" cx="162" cy="440.4" r="2.2"/>
	<circle class="st2" cx="166.3" cy="435.3" r="2.2"/>
	<path class="st1" d="M347.5,312.4c0,0-8.3,24.4,0.7,65.3"/>
	<circle class="st2" cx="410.3" cy="445.2" r="2.2"/>
	<circle class="st2" cx="406" cy="440.4" r="2.2"/>
	<circle class="st2" cx="401.6" cy="435.3" r="2.2"/>
	<path class="st2" d="M223.8,424.1c0,0,3.9,4.9,3.9,7.5v61.9"/>
	<path class="st1" d="M317.5,304.5c0,0-8.8,3.6-33.6,3.6c-24.8,0-33.6-3.6-33.6-3.6"/>
	<path class="st2" d="M344,424.1c0,0-3.9,4.9-3.9,7.5v61.9"/>
	<line class="st2" x1="283.9" y1="308.2" x2="283.9" y2="493.6"/>
</g>
<polygon class="st4" points="312.6,312.4 312.8,312.5 316.1,309.8 316.1,487.7 312.8,485 312.6,485.1 316.8,491.5 321.2,485.2 
	321.1,485 317.6,487.7 317.6,309.8 321.1,312.4 321.2,312.3 316.8,306 "/>
<polygon class="st4" points="276.8,309.1 276.7,309.2 279.5,312.5 223.3,313.8 221.5,313.8 220.4,315.4 140.2,427.5 139.1,423.4 
	138.9,423.3 138.6,431 145.9,428.4 145.8,428.2 141.4,428.4 222.2,315.3 279.5,314 276.9,317.6 277.1,317.7 283.3,313.1 "/>
<polygon class="st4" points="339,157.2 339,157.3 341.7,160.7 226.7,160.7 229.4,157.3 229.3,157.2 222.9,161.4 229.3,165.8 
	229.4,165.7 226.7,162.2 341.7,162.2 339,165.7 339.1,165.8 345.4,161.4 "/>
<circle class="st5" cx="258.5" cy="161.3" r="10"/>
<text transform="matrix(1 0 0 1 251.8447 163.5361)" class="st4 st6 st7">102</text>
<circle class="st5" cx="316.9" cy="398.6" r="10"/>
<text transform="matrix(1 0 0 1 310.2686 400.875)" class="st4 st6 st7">200</text>
<circle class="st5" cx="185.3" cy="364.6" r="10"/>
<text transform="matrix(1 0 0 1 178.6763 366.873)" class="st4 st6 st7">105</text>
</svg>
